<svg width="64" height="64" viewBox="0 0 64 64" fill="none" xmlns="http://www.w3.org/2000/svg">
<path d="M58.6667 29.3332C58.6742 27.4536 58.1848 25.6054 57.2483 23.9758C56.3117 22.3461 54.9612 20.9929 53.3334 20.0532C53.3735 19.5918 53.3735 19.1278 53.3334 18.6665C53.3334 16.5448 52.4905 14.5099 50.9902 13.0096C49.4899 11.5093 47.4551 10.6665 45.3334 10.6665H44.8534C44.4093 9.43532 43.6699 8.33191 42.7001 7.45301C41.7303 6.57412 40.5597 5.94658 39.2909 5.62543C38.0221 5.30428 36.6939 5.29934 35.4228 5.61102C34.1516 5.92271 32.9764 6.54151 32 7.41315C31.0237 6.54151 29.8485 5.92271 28.5773 5.61102C27.3062 5.29934 25.9779 5.30428 24.7092 5.62543C23.4404 5.94658 22.2697 6.57412 21.2999 7.45301C20.3301 8.33191 19.5908 9.43532 19.1467 10.6665H18.6667C16.545 10.6665 14.5101 11.5093 13.0099 13.0096C11.5096 14.5099 10.6667 16.5448 10.6667 18.6665C10.6266 19.1278 10.6266 19.5918 10.6667 20.0532C9.15327 20.9086 7.87186 22.121 6.93401 23.5848C5.99617 25.0486 5.43033 26.7195 5.28574 28.4519C5.14115 30.1844 5.42219 31.9259 6.10441 33.5249C6.78663 35.124 7.84934 36.532 9.20004 37.6265C8.3261 39.2565 7.89101 41.0858 7.93749 42.9348C7.98397 44.7837 8.51042 46.5888 9.46517 48.1729C10.4199 49.757 11.7701 51.0656 13.3833 51.9702C14.9965 52.8749 16.8172 53.3446 18.6667 53.3332H19.1467C19.5908 54.5643 20.3301 55.6677 21.2999 56.5466C22.2697 57.4255 23.4404 58.0531 24.7092 58.3742C25.9779 58.6954 27.3062 58.7003 28.5773 58.3886C29.8485 58.0769 31.0237 57.4581 32 56.5865C32.9764 57.4581 34.1516 58.0769 35.4228 58.3886C36.6939 58.7003 38.0221 58.6954 39.2909 58.3742C40.5597 58.0531 41.7303 57.4255 42.7001 56.5466C43.6699 55.6677 44.4093 54.5643 44.8534 53.3332H45.3334C47.1716 53.3215 48.9756 52.8351 50.5704 51.9209C52.1653 51.0068 53.4968 49.696 54.4358 48.1157C55.3749 46.5354 55.8896 44.7392 55.93 42.9014C55.9705 41.0636 55.5353 39.2466 54.6667 37.6265C55.9105 36.6306 56.9154 35.3688 57.6076 33.9336C58.2998 32.4985 58.6617 30.9265 58.6667 29.3332ZM29.3334 22.7998C28.7526 22.4676 28.1462 22.1823 27.52 21.9465C26.8482 21.7202 26.1139 21.77 25.4788 22.0851C24.8436 22.4001 24.3597 22.9546 24.1334 23.6265C23.9071 24.2984 23.9569 25.0326 24.272 25.6678C24.587 26.3029 25.1415 26.7868 25.8134 27.0132C26.8399 27.3843 27.7278 28.0614 28.3573 28.9531C28.9867 29.8449 29.3274 30.9083 29.3334 31.9998V36.1332C28.7526 35.801 28.1462 35.5156 27.52 35.2798C26.8482 35.0535 26.1139 35.1034 25.4788 35.4184C24.8436 35.7335 24.3597 36.2879 24.1334 36.9598C23.9071 37.6317 23.9569 38.366 24.272 39.0011C24.587 39.6362 25.1415 40.1202 25.8134 40.3465C26.8399 40.7176 27.7278 41.3947 28.3573 42.2865C28.9867 43.1782 29.3274 44.2416 29.3334 45.3332V50.6665C29.3334 51.3737 29.0524 52.052 28.5523 52.5521C28.0522 53.0522 27.374 53.3332 26.6667 53.3332C26.1508 53.3298 25.6469 53.1768 25.2162 52.8928C24.7855 52.6088 24.4464 52.206 24.24 51.7332C24.6872 51.4708 25.1149 51.1767 25.52 50.8532C25.7897 50.629 26.0126 50.354 26.1759 50.0437C26.3393 49.7335 26.4399 49.3941 26.4721 49.045C26.5043 48.6958 26.4674 48.3437 26.3635 48.0088C26.2596 47.674 26.0908 47.3628 25.8667 47.0932C25.6426 46.8235 25.3675 46.6006 25.0573 46.4373C24.747 46.2739 24.4076 46.1733 24.0585 46.1411C23.7094 46.1089 23.3573 46.1458 23.0224 46.2497C22.6875 46.3535 22.3764 46.5224 22.1067 46.7465C21.1439 47.5571 19.9253 48.001 18.6667 47.9998C17.2522 47.9998 15.8957 47.4379 14.8955 46.4377C13.8953 45.4375 13.3334 44.081 13.3334 42.6665C13.3461 41.6627 13.6419 40.683 14.1867 39.8398C14.7852 39.9472 15.392 40.0007 16 39.9998C16.7073 39.9998 17.3856 39.7189 17.8857 39.2188C18.3858 38.7187 18.6667 38.0404 18.6667 37.3332C18.6667 36.6259 18.3858 35.9476 17.8857 35.4475C17.3856 34.9474 16.7073 34.6665 16 34.6665C15.3701 34.6701 14.7454 34.5524 14.16 34.3198C13.201 33.9739 12.3611 33.3604 11.74 32.5518C11.1189 31.7433 10.7426 30.7737 10.6556 29.7579C10.5686 28.742 10.7746 27.7225 11.2492 26.8202C11.7238 25.9178 12.4471 25.1704 13.3334 24.6665C13.7123 25.0151 14.123 25.3276 14.56 25.5998C15.1753 25.9534 15.9059 26.0482 16.5911 25.8631C17.2762 25.6781 17.8597 25.2285 18.2134 24.6132C18.567 23.9979 18.6617 23.2673 18.4767 22.5821C18.2916 21.897 17.842 21.3134 17.2267 20.9598C16.8513 20.7527 16.5382 20.4489 16.32 20.0798C16.0735 19.6517 15.962 19.1591 16 18.6665C16 17.9592 16.281 17.281 16.7811 16.7809C17.2812 16.2808 17.9595 15.9998 18.6667 15.9998C18.8525 15.9739 19.0409 15.9739 19.2267 15.9998C19.3679 16.4283 19.5371 16.847 19.7334 17.2532C19.9076 17.5587 20.1405 17.8268 20.4188 18.042C20.697 18.2571 21.0151 18.4151 21.3547 18.5068C21.6943 18.5985 22.0486 18.6221 22.3974 18.5763C22.7461 18.5305 23.0823 18.4161 23.3867 18.2398C23.9779 17.8841 24.4082 17.3131 24.5873 16.6467C24.7663 15.9804 24.6801 15.2706 24.3467 14.6665C24.123 14.2574 24.0039 13.7994 24 13.3332C24 12.6259 24.281 11.9476 24.7811 11.4475C25.2812 10.9474 25.9595 10.6665 26.6667 10.6665C27.374 10.6665 28.0522 10.9474 28.5523 11.4475C29.0524 11.9476 29.3334 12.6259 29.3334 13.3332V22.7998ZM49.84 34.3198C49.2546 34.5524 48.6299 34.6701 48 34.6665C47.2928 34.6665 46.6145 34.9474 46.1144 35.4475C45.6143 35.9476 45.3334 36.6259 45.3334 37.3332C45.3334 38.0404 45.6143 38.7187 46.1144 39.2188C46.6145 39.7189 47.2928 39.9998 48 39.9998C48.608 40.0007 49.2149 39.9472 49.8134 39.8398C50.3582 40.683 50.6539 41.6627 50.6667 42.6665C50.6667 44.081 50.1048 45.4375 49.1046 46.4377C48.1044 47.4379 46.7479 47.9998 45.3334 47.9998C44.0747 48.001 42.8562 47.5571 41.8934 46.7465C41.3488 46.2939 40.6467 46.0761 39.9416 46.1411C39.2364 46.2061 38.586 46.5486 38.1334 47.0932C37.6807 47.6377 37.463 48.3398 37.528 49.045C37.593 49.7501 37.9355 50.4005 38.48 50.8532C38.8851 51.1767 39.3129 51.4708 39.76 51.7332C39.5537 52.206 39.2146 52.6088 38.7839 52.8928C38.3531 53.1768 37.8493 53.3298 37.3334 53.3332C36.6261 53.3332 35.9479 53.0522 35.4478 52.5521C34.9477 52.052 34.6667 51.3737 34.6667 50.6665V45.3332C34.6726 44.2416 35.0133 43.1782 35.6428 42.2865C36.2723 41.3947 37.1602 40.7176 38.1867 40.3465C38.8586 40.1202 39.413 39.6362 39.7281 39.0011C40.0432 38.366 40.093 37.6317 39.8667 36.9598C39.6404 36.2879 39.1564 35.7335 38.5213 35.4184C37.8862 35.1034 37.1519 35.0535 36.48 35.2798C35.8539 35.5156 35.2475 35.801 34.6667 36.1332V31.9998C34.6726 30.9083 35.0133 29.8449 35.6428 28.9531C36.2723 28.0614 37.1602 27.3843 38.1867 27.0132C38.5194 26.9011 38.8267 26.7246 39.0912 26.4938C39.3557 26.2629 39.5721 25.9822 39.7281 25.6678C39.8841 25.3533 39.9766 25.0112 40.0004 24.6609C40.0242 24.3107 39.9788 23.9592 39.8667 23.6265C39.7546 23.2938 39.5782 22.9865 39.3473 22.722C39.1165 22.4575 38.8358 22.2411 38.5213 22.0851C38.2068 21.9291 37.8647 21.8365 37.5145 21.8128C37.1642 21.789 36.8127 21.8344 36.48 21.9465C35.8539 22.1823 35.2475 22.4676 34.6667 22.7998V13.3332C34.6667 12.6259 34.9477 11.9476 35.4478 11.4475C35.9479 10.9474 36.6261 10.6665 37.3334 10.6665C38.0406 10.6665 38.7189 10.9474 39.219 11.4475C39.7191 11.9476 40 12.6259 40 13.3332C39.9962 13.7994 39.8771 14.2574 39.6534 14.6665C39.476 14.9693 39.36 15.3041 39.3123 15.6517C39.2645 15.9994 39.2858 16.353 39.375 16.6924C39.4642 17.0318 39.6195 17.3503 39.832 17.6296C40.0445 17.9088 40.31 18.1434 40.6134 18.3198C40.9177 18.4961 41.254 18.6105 41.6027 18.6563C41.9514 18.7021 42.3058 18.6785 42.6454 18.5868C42.985 18.4951 43.303 18.3371 43.5813 18.122C43.8596 17.9068 44.0925 17.6387 44.2667 17.3332C44.4663 16.901 44.6356 16.4555 44.7734 15.9998C44.9591 15.9739 45.1476 15.9739 45.3334 15.9998C46.0406 15.9998 46.7189 16.2808 47.219 16.7809C47.7191 17.281 48 17.9592 48 18.6665C47.996 19.1892 47.8383 19.6993 47.5467 20.1332C47.3286 20.4792 47.0257 20.7638 46.6667 20.9598C46.0514 21.3134 45.6018 21.897 45.4167 22.5821C45.2317 23.2673 45.3264 23.9979 45.68 24.6132C46.0337 25.2285 46.6172 25.6781 47.3024 25.8631C47.9875 26.0482 48.7181 25.9534 49.3334 25.5998C49.8122 25.3409 50.2595 25.0277 50.6667 24.6665C51.556 25.1615 52.2851 25.9007 52.7679 26.7967C53.2507 27.6927 53.4671 28.7082 53.3913 29.7232C53.3156 30.7382 52.9511 31.7104 52.3407 32.5249C51.7303 33.3394 50.8996 33.9622 49.9467 34.3198H49.84Z" fill="#413348"/>
</svg>
