<svg width="64" height="64" viewBox="0 0 64 64" fill="none" xmlns="http://www.w3.org/2000/svg">
<path d="M51.0809 37.7476C49.821 36.4876 47.6667 37.38 47.6667 39.1618V51C47.6667 52.1046 46.7712 53 45.6667 53H12.3333C11.2288 53 10.3333 52.1046 10.3333 51V17.6667C10.3333 16.5621 11.2288 15.6667 12.3333 15.6667H21.8559C22.9059 15.6667 23.7643 14.8509 23.9555 13.8184C23.9943 13.6086 24.037 13.4004 24.0836 13.1937C24.3974 11.7994 23.4217 10.3333 21.9925 10.3333H10.3333C7.4 10.3333 5 12.7333 5 15.6667V53C5 55.9333 7.4 58.3333 10.3333 58.3333H47.6667C50.6 58.3333 53 55.9333 53 53V40.4951C53 39.9647 52.7893 39.456 52.4142 39.0809L51.0809 37.7476ZM41.2603 44.465C42.2511 45.7833 41.3106 47.6667 39.6616 47.6667H18.4267C16.7617 47.6667 15.8257 45.751 16.8489 44.4375L20.1388 40.2146C20.9237 39.207 22.4391 39.1834 23.2551 40.1659L25.3027 42.6314C26.1194 43.6148 27.6364 43.5901 28.4207 42.5805L32.621 37.1736C33.4298 36.1325 35.0071 36.145 35.7992 37.1989L41.2603 44.465ZM52.265 24.5014C51.6032 23.8417 51.5033 22.8184 51.8966 21.9708C52.6012 20.4523 53 18.7798 53 17C53 10.36 47.64 5 41 5C34.36 5 29 10.36 29 17C29 23.64 34.36 29 40.9733 29C42.7469 29 44.429 28.604 45.9392 27.904C46.7903 27.5096 47.8189 27.6055 48.4822 28.2689L54.2525 34.0391C55.0335 34.8202 56.2998 34.8202 57.0809 34.0391L58.0368 33.0832C58.8188 32.3012 58.8178 31.0331 58.0346 30.2525L52.265 24.5014ZM41 23.6667C39.2319 23.6667 37.5362 22.9643 36.286 21.714C35.0357 20.4638 34.3333 18.7681 34.3333 17C34.3333 15.2319 35.0357 13.5362 36.286 12.286C37.5362 11.0357 39.2319 10.3333 41 10.3333C42.7681 10.3333 44.4638 11.0357 45.714 12.286C46.9643 13.5362 47.6667 15.2319 47.6667 17C47.6667 18.7681 46.9643 20.4638 45.714 21.714C44.4638 22.9643 42.7681 23.6667 41 23.6667Z" fill="#413348"/>
</svg>
