<svg width="64" height="64" viewBox="0 0 64 64" fill="none" xmlns="http://www.w3.org/2000/svg">
<path d="M62.7416 30.782C62.6508 30.5773 60.4598 25.7168 55.6215 20.878C49.1588 14.4145 40.9905 10.998 32 10.998C23.0095 10.998 14.8413 14.4145 8.37879 20.878C3.54029 25.7168 1.34929 30.5773 1.25879 30.782C1.08832 31.1656 1.00024 31.5807 1.00024 32.0004C1.00024 32.4202 1.08832 32.8352 1.25879 33.2188C1.34954 33.4233 3.54054 38.2828 8.37879 43.1205C14.8415 49.5828 23.0095 52.998 32 52.998C40.9905 52.998 49.1585 49.5828 55.621 43.1205C60.4595 38.283 62.6506 33.4233 62.7416 33.2188C62.912 32.8352 63.0001 32.4202 63.0001 32.0004C63.0001 31.5807 62.912 31.1656 62.7416 30.782ZM51.2285 39.027C45.8665 44.3163 39.397 46.9983 32 46.9983C24.603 46.9983 18.1335 44.3163 12.7715 39.027C10.663 36.9408 8.84877 34.5768 7.37904 32.0003C8.84866 29.423 10.6629 27.0581 12.7715 24.971C18.1343 19.6805 24.6033 16.9983 32 16.9983C39.3968 16.9983 45.8663 19.6808 51.2283 24.971C53.3369 27.058 55.1511 29.4227 56.6208 31.9998C55.1513 34.5765 53.3371 36.9407 51.2285 39.027ZM32 19.0005C29.4289 19.0005 26.9155 19.763 24.7776 21.1914C22.6398 22.6199 20.9736 24.6502 19.9896 27.0257C19.0057 29.4011 18.7482 32.015 19.2498 34.5367C19.7514 37.0585 20.9896 39.3749 22.8077 41.1929C24.6257 43.011 26.9421 44.2491 29.4639 44.7508C31.9856 45.2524 34.5995 44.9949 36.9749 44.011C39.3504 43.027 41.3807 41.3608 42.8092 39.223C44.2376 37.0851 45 34.5717 45 32.0005C44.9961 28.5539 43.6253 25.2496 41.1881 22.8125C38.751 20.3753 35.4467 19.0045 32 19.0005ZM32 39.0005C30.6156 39.0005 29.2622 38.59 28.1111 37.8208C26.9599 37.0517 26.0627 35.9584 25.5329 34.6793C25.0031 33.4002 24.8645 31.9928 25.1345 30.6349C25.4046 29.277 26.0713 28.0298 27.0503 27.0508C28.0293 26.0718 29.2765 25.4051 30.6344 25.135C31.9923 24.865 33.3997 25.0036 34.6788 25.5334C35.9579 26.0632 37.0512 26.9604 37.8203 28.1116C38.5895 29.2627 39 30.6161 39 32.0005C38.998 33.8564 38.2598 35.6357 36.9475 36.948C35.6352 38.2603 33.8559 38.9985 32 39.0005Z" fill="#413348"/>
</svg>
